<?xml version="1.0" encoding="utf-8"?>
<!-- Generator: Adobe Illustrator 21.0.0, SVG Export Plug-In . SVG Version: 6.00 Build 0)  -->
<svg version="1.1" id="Layer_1" xmlns="http://www.w3.org/2000/svg" xmlns:xlink="http://www.w3.org/1999/xlink" x="0px" y="0px"
	 viewBox="0 0 13.9 14.8" style="enable-background:new 0 0 13.9 14.8;" xml:space="preserve">
<style type="text/css">
	.st0{fill:#FFFFFF;}
	.st1{fill:#FF1010;}
</style>
<title>angular</title>
<g id="Layer_2">
	<g id="Layer_1-2">
		<path class="st0" d="M0,2.4c0,0.1,0,0.2,0,0.3C0.2,3.8,0.3,5,0.4,6.2C0.6,7.9,0.8,9.7,1,11.4c0,0.1,0.1,0.2,0.2,0.3
			c1.9,1,3.7,2,5.5,3.1c0.1,0,0.2,0,0.3,0c1.8-1,3.7-2,5.5-3.1c0.1-0.1,0.2-0.2,0.2-0.3c0.1-0.9,0.2-1.7,0.3-2.6
			c0.2-1.4,0.3-2.8,0.5-4.2c0.1-0.7,0.2-1.5,0.3-2.2L7.1,0C6.9,0,6.8,0,6.7,0L3,1.3L0,2.4z"/>
		<path class="st1" d="M0,2.4l3-1.1L6.7,0C6.8,0,7,0,7.1,0l6.8,2.4c-0.1,0.8-0.2,1.5-0.3,2.2c-0.2,1.4-0.3,2.8-0.5,4.2
			c-0.1,0.9-0.2,1.7-0.3,2.6c0,0.1-0.1,0.2-0.2,0.3c-1.8,1-3.7,2-5.5,3.1c-0.1,0-0.2,0-0.3,0c-1.8-1-3.7-2-5.5-3
			C1.1,11.6,1,11.5,1,11.4C0.8,9.7,0.6,7.9,0.4,6.2C0.3,5,0.2,3.8,0,2.7C0,2.6,0,2.5,0,2.4z M6.9,1.7l-4.3,9.6h1.5
			C4.5,10.6,4.7,10,5,9.4c0-0.2,0.2-0.3,0.4-0.3c1,0,2.1,0,3.2,0C8.8,9.1,9,9.2,9,9.4C9.2,10,9.4,10.5,9.7,11c0,0.1,0.2,0.2,0.3,0.2
			c0.4,0,0.9,0,1.4,0L6.9,1.7z"/>
		<path class="st1" d="M5.6,7.8l1.3-3.1l1.3,3.1H5.6z"/>
	</g>
</g>
</svg>
