<?xml version="1.0" encoding="utf-8"?>
<!-- Generator: Adobe Illustrator 21.0.0, SVG Export Plug-In . SVG Version: 6.00 Build 0)  -->
<svg version="1.1" id="Layer_1" xmlns="http://www.w3.org/2000/svg" xmlns:xlink="http://www.w3.org/1999/xlink" x="0px" y="0px"
	 viewBox="0 0 177 42" style="enable-background:new 0 0 177 42;" xml:space="preserve">
<style type="text/css">
	.st0{fill:#FFFFFF;}
	.st1{fill:#D8362A;}
</style>
<g>
	<path class="st0" d="M74.6,38.5h-6.4v-1.9h2.1v-3.6l-4.5-10.3h-1.2v-1.9h5v1.9h-1.8l3.4,8l3.4-8h-1.7v-1.9h5v1.9h-1.2l-4.4,10.3
		v3.7h2.1V38.5z"/>
	<path class="st0" d="M82.9,38.5l-2.5-2.6V23.3l2.5-2.6h6.7l2.5,2.6v12.6l-2.5,2.6H82.9z M83.8,36.4h4.8l1.2-1.3V24l-1.2-1.3h-4.8
		L82.6,24v11.2L83.8,36.4z"/>
	<path class="st0" d="M104.6,20.7h5.3v1.9h-1.4v13.3l-2.5,2.6h-6.4L97,35.8V22.6h-1.4v-1.9h5.3v1.9h-1.7v12.6l1.2,1.3h4.6l1.2-1.3
		V22.6h-1.7V20.7z"/>
	<path class="st0" d="M121.8,38.5h-6.9v-1.9h2.4v-14h-3.5v2.7h-1.8v-4.6h12.8v4.6h-1.8v-2.7h-3.5v14h2.4V38.5z"/>
	<path class="st0" d="M135.8,20.7h5.3v1.9h-1.4v13.3l-2.5,2.6h-6.4l-2.5-2.6V22.6h-1.4v-1.9h5.3v1.9h-1.7v12.6l1.2,1.3h4.6l1.2-1.3
		V22.6h-1.7V20.7z"/>
	<path class="st0" d="M144.6,20.7h9.5l2.5,2.6v4.3l-1.3,1.4l1.8,1.8v5.1l-2.5,2.6h-9.9v-1.9h1.7v-14h-1.7V20.7z M148.5,22.7v5.4h4.7
		l1.4-1.4v-2.6l-1.4-1.4H148.5z M148.5,30v6.4h5.2L155,35v-3.5l-1.5-1.5H148.5z"/>
	<path class="st0" d="M160.8,20.7h11.3v4.6h-1.9v-2.7h-5.5v6h5.5v1.9h-5.5v6h5.5v-2.7h1.9v4.6h-11.3v-1.9h1.7v-14h-1.7V20.7z"/>
</g>
<path class="st1" d="M47,1H14.2C7.8,1,2.6,6.2,2.6,12.6V29c0,6.4,5.2,11.6,11.6,11.6H47c6.4,0,11.6-5.2,11.6-11.6V12.6
	C58.6,6.2,53.4,1,47,1z M39.1,21.6l-15.3,7.3c-0.4,0.2-0.9-0.1-0.9-0.6V13.3c0-0.5,0.5-0.8,0.9-0.5l15.3,7.8
	C39.6,20.7,39.6,21.4,39.1,21.6z"/>
<g>
	<path class="st0" d="M69.4,4.6h3.2v1.1h-0.9v8l-1.5,1.6h-3.9l-1.5-1.6v-8H64V4.6h3.2v1.1h-1v7.6l0.7,0.8h2.8l0.7-0.8V5.7h-1V4.6z"
		/>
	<path class="st0" d="M77.1,14.2h1v1.1h-3.3v-1.1h1V5.7h-1V4.6h3l4.2,9.1v-8h-1V4.6h3.3v1.1h-1v9.6h-2l-4.2-9.1V14.2z"/>
	<path class="st0" d="M86.3,14.2h1.1V5.7h-1.1V4.6h3.6v1.1h-1.1v8.5h1.1v1.1h-3.6V14.2z"/>
	<path class="st0" d="M91.2,5.7V4.6h3v1.1h-1l2.6,8.3l2.6-8.3h-1V4.6h3v1.1h-0.7l-3,9.6h-1.8l-3-9.6H91.2z"/>
	<path class="st0" d="M101.9,4.6h6.8v2.8h-1.1V5.7h-3.4v3.7h3.4v1.1h-3.4v3.7h3.4v-1.7h1.1v2.8h-6.8v-1.1h1V5.7h-1V4.6z"/>
	<path class="st0" d="M111,4.6h5.7l1.5,1.6v3.2l-1.5,1.6l1.5,3.3h0.7v1.1h-2.7v-1.1h0.6l-1.5-3.3h-2v3.3h0.9v1.1H111v-1.1h1V5.7h-1
		V4.6z M113.3,5.8v3.8h2.8l0.8-0.8V6.6l-0.8-0.8H113.3z"/>
	<path class="st0" d="M127.3,7.9h-1.2V6.7l-0.9-0.9h-2.2l-0.7,0.8v2l0.7,0.7h3l1.4,1.5v3l-1.5,1.6h-3.6l-1.5-1.6v-1.8h1.2v1.3
		l0.9,0.9h2.5l0.7-0.8v-2.1l-0.7-0.7h-3L121,8.9V6.1l1.5-1.6h3.3l1.5,1.6V7.9z"/>
	<path class="st0" d="M129.5,14.2h1.1V5.7h-1.1V4.6h3.6v1.1h-1.1v8.5h1.1v1.1h-3.6V14.2z"/>
	<path class="st0" d="M140.3,15.3h-4.2v-1.1h1.4V5.7h-2.1v1.7h-1.1V4.6h7.7v2.8H141V5.7h-2.1v8.5h1.4V15.3z"/>
	<path class="st0" d="M148.7,15.3h-3.9v-1.1h1.3V12l-2.7-6.3h-0.7V4.6h3v1.1h-1.1l2.1,4.8l2.1-4.8h-1V4.6h3v1.1h-0.7l-2.7,6.2v2.3
		h1.3V15.3z"/>
	<path class="st0" d="M158.8,15.3l-1.5-1.6V6.1l1.5-1.6h4l1.5,1.6v7.6l-1.5,1.6H158.8z M159.3,14.1h2.9l0.7-0.8V6.5l-0.7-0.8h-2.9
		l-0.7,0.8v6.8L159.3,14.1z"/>
	<path class="st0" d="M166.6,4.6h6.8v2.8h-1.1V5.7h-3.4v3.7h3.4v1.1h-3.4v3.7h1.1v1.1h-3.5v-1.1h1V5.7h-1V4.6z"/>
</g>
</svg>
