<?xml version="1.0" encoding="utf-8"?>
<!-- Generator: Adobe Illustrator 21.0.0, SVG Export Plug-In . SVG Version: 6.00 Build 0)  -->
<svg version="1.1" id="Layer_1" xmlns="http://www.w3.org/2000/svg" xmlns:xlink="http://www.w3.org/1999/xlink" x="0px" y="0px"
	 viewBox="0 0 21.1 21.1" style="enable-background:new 0 0 21.1 21.1;" xml:space="preserve">
<style type="text/css">
	.st0{fill:#3FA9F5;}
</style>
<title>reactjs</title>
<g id="Layer_2">
	<g id="Layer_1-2">
		<path class="st0" d="M16.7,13.7c0.1,0.9,0.2,1.8,0.2,2.7c0,0.5-0.1,0.9-0.3,1.4c-0.2,1-1.2,1.6-2.2,1.4c-0.1,0-0.1,0-0.2-0.1
			c-1.1-0.3-2.1-0.9-2.9-1.7l-0.4-0.4c-0.6,0.5-1.2,0.9-1.9,1.4c-0.6,0.3-1.3,0.6-2,0.7c-0.9,0.2-1.8-0.4-2-1.3
			c-0.3-1.1-0.4-2.2-0.1-3.3c0-0.3,0.1-0.6,0.2-0.8c-0.5-0.2-1-0.4-1.5-0.6c-0.8-0.3-1.6-0.9-2.1-1.6c-0.6-0.7-0.6-1.7,0-2.4
			c0.5-0.7,1.2-1.2,2-1.5c0.5-0.2,1.1-0.4,1.6-0.7c-0.1-0.5-0.2-1-0.2-1.5C4.7,4.8,4.7,4,4.8,3.3c0.1-1,1-1.8,2-1.7
			c0.2,0,0.5,0.1,0.7,0.2c1.1,0.3,2.1,0.9,2.9,1.7l0.4,0.3c0.4-0.4,0.8-0.7,1.3-1c0.6-0.4,1.3-0.7,2.1-1c0.9-0.4,2,0.1,2.4,1
			c0,0.1,0.1,0.2,0.1,0.3c0.3,1.1,0.3,2.3,0,3.4c0,0.2-0.1,0.4-0.1,0.6c0.4,0.2,0.9,0.3,1.3,0.5C18.7,7.9,19.4,8.4,20,9
			c0.8,0.7,0.9,1.9,0.2,2.6c-0.1,0.1-0.1,0.1-0.2,0.2c-0.8,0.8-1.7,1.3-2.8,1.6L16.7,13.7z M10.8,13.5c0.5,0,1,0,1.5,0
			c0.2,0,0.4-0.1,0.5-0.3c0.5-0.9,1-1.7,1.5-2.6c0.1-0.2,0.1-0.3,0-0.5c-0.5-0.9-1-1.7-1.5-2.6c-0.1-0.2-0.3-0.3-0.5-0.3
			c-1,0-2,0-3,0C9.1,7.3,9,7.4,8.9,7.5c-0.5,0.9-1.1,1.7-1.6,2.6c-0.1,0.2-0.1,0.3,0,0.5c0.5,0.9,1,1.8,1.5,2.7
			c0.1,0.1,0.2,0.2,0.4,0.2C9.8,13.6,10.3,13.5,10.8,13.5L10.8,13.5z M5.3,12.9c0.3-0.8,0.6-1.6,0.9-2.4c0-0.1,0-0.2,0-0.2
			c-0.3-0.8-0.6-1.6-1-2.4C4.8,8.1,4.4,8.2,4,8.3C3.2,8.6,2.6,9,2,9.6c-0.4,0.4-0.5,1-0.1,1.4c0,0,0.1,0.1,0.1,0.1
			C2.9,12,4,12.7,5.3,12.9z M10.3,16.5l-1.6-2c-0.1-0.1-0.1-0.1-0.2-0.2L5.9,14c-0.3,1.1-0.4,2.3-0.1,3.5c0.1,0.6,0.6,1,1.2,0.9
			c0.1,0,0.2,0,0.3-0.1C8.4,17.9,9.4,17.3,10.3,16.5z M15.8,14l-2.6,0.4c-0.1,0-0.2,0.1-0.3,0.1c-0.5,0.7-1,1.3-1.6,2
			c0.8,0.9,1.9,1.5,3.1,1.9c0.5,0.2,1.1-0.1,1.3-0.6C16.1,16.4,16.1,15.2,15.8,14L15.8,14z M10.3,4.3C9.8,4,9.4,3.6,9,3.3
			C8.4,3,7.7,2.7,7,2.5C6.4,2.3,6,2.6,5.9,3.2c-0.1,0.3-0.2,0.7-0.2,1C5.6,5.1,5.6,6,5.9,6.8l2.4-0.3c0.1,0,0.2-0.1,0.3-0.2
			C9.1,5.7,9.6,5,10.3,4.3z M15.7,6.8c0.1-0.2,0.1-0.5,0.1-0.7c0.2-1,0.2-2-0.1-3c-0.1-0.5-0.7-0.9-1.2-0.7c-1.2,0.3-2.3,1-3.1,1.9
			c0.5,0.7,1,1.3,1.5,2c0.1,0.1,0.2,0.1,0.3,0.2L15.7,6.8z M16.4,12.8c1.1-0.3,2.2-0.9,3.1-1.7c0.5-0.3,0.6-0.9,0.3-1.4
			c-0.1-0.1-0.2-0.2-0.3-0.3c-0.9-0.8-1.9-1.3-3.1-1.6c-0.3,0.8-0.6,1.5-0.9,2.3c0,0.1,0,0.2,0,0.3C15.7,11.3,16,12.1,16.4,12.8z
			 M14.9,11.3l-1.2,2.1l1.9-0.3L14.9,11.3z M7.9,13.4l-1.2-2L6,13.2L7.9,13.4z M13.6,7.3l1.2,2l0.6-1.7L13.6,7.3z M10.8,15.8
			l1.1-1.4H9.6L10.8,15.8z M6.1,7.7l0.6,1.7l1.2-2L6.6,7.6L6.1,7.7z M9.6,6.3h2.3L10.8,5L9.6,6.3z"/>
		<path class="st0" d="M10.8,8.7c1,0,1.8,0.8,1.8,1.7s-0.8,1.8-1.7,1.8c-1,0-1.8-0.8-1.8-1.7C9,9.5,9.8,8.7,10.8,8.7
			C10.8,8.7,10.8,8.7,10.8,8.7z"/>
	</g>
</g>
</svg>
